<?xml version="1.0" encoding="UTF-8" standalone="no"?>
<svg
   version="1.1"
   viewBox="0 0 2000 2000"
   width="500"
   height="500"
   id="svg308"
   sodipodi:docname="rumoca.svg"
   inkscape:version="1.2.2 (b0a8486541, 2022-12-01)"
   xmlns:inkscape="http://www.inkscape.org/namespaces/inkscape"
   xmlns:sodipodi="http://sodipodi.sourceforge.net/DTD/sodipodi-0.dtd"
   xmlns="http://www.w3.org/2000/svg"
   xmlns:svg="http://www.w3.org/2000/svg">
  <defs
     id="defs312" />
  <sodipodi:namedview
     id="namedview310"
     pagecolor="#ffffff"
     bordercolor="#000000"
     borderopacity="0.25"
     inkscape:showpageshadow="2"
     inkscape:pageopacity="0.0"
     inkscape:pagecheckerboard="0"
     inkscape:deskcolor="#d1d1d1"
     showgrid="false"
     inkscape:zoom="2.054"
     inkscape:cx="211.29503"
     inkscape:cy="250.97371"
     inkscape:window-width="2494"
     inkscape:window-height="1371"
     inkscape:window-x="1506"
     inkscape:window-y="552"
     inkscape:window-maximized="1"
     inkscape:current-layer="svg308" />
  <path
     transform="translate(920,342)"
     d="m0 0h158l15 60 8 34 3 5 59 15 33 10 6 1 33-33 3-4h2l2-4 32-32 11 6 25 15 29 17 21 13 15 9 22 13 15 9 1 2-13 47-13 46 2 5 10 9 13 12 28 28 7 8 10 11 10-1 14-4 39-11 30-8h6l10 17 14 25 10 17 17 29 10 18 12 21 4 9-17 17-8 7-10 9-7 7-8 7-8 8-8 7-6 5 1 6 12 39 9 33 4 17 1 3 30 7 25 5 41 10 1 1 1 7v41l-1 104-2 2-63 14-33 8-4 15-13 48-8 27-1 6 12 11 8 7 10 9 8 7 12 11 17 16 5 5-2 6-8 16-13 23-10 17-16 28-9 15-15 26-6 10-3 1-86-25-11-2-12 12-7 8-28 28-8 7-8 8-7 6 3 11 5 17 8 27 7 25 3 11v4l-16 10-23 13-15 9-26 15-51 30-5 2-70-70-8 1-50 14-34 8-11 2-4 19-15 64-4 14-1 2-3 1h-82l-62-1-9-1-4-11-16-63-5-21-4-2-15-3-39-10-33-10-10-1-9 9-7 8-18 18-7 8-18 18-8 7-6-1-10-6-11-6-18-10-17-10-25-14-20-12-14-8-16-10-1-4 6-24 7-24 7-26 5-18-4-5-8-7-10-9-10-10-7-6-7-8-10-10-9-11-3-4h-7l-31 9-32 10-30 8-4-4-15-25-17-29-10-17-35-63 1-4 13-12 5-4 16-16 8-7 4-4h2v-2l11-9 12-11-1-8-10-33-12-45-3-10-15-4-35-7-39-9-9-3v-152l15-4 39-9 40-8h3l3-14 8-31 7-23 7-25 1-6-9-10-8-7-33-31-3-2v-2l-4-2-14-14 1-5 12-23 14-24 13-24 14-24 12-21 10-16 10 2 52 15 32 9 6 1 2-4 15-15 7-8 14-14 7-8 11-11 8-7 5-5-2-9-15-52-9-33 1-4 16-10 54-32 13-8 53-31 5 1 69 69 6-1 21-6 23-6 16-4 30-7h2l1-8 12-48 10-38z"
     fill="#ECEFF3"
     id="path4" />
  <path
     transform="translate(920,342)"
     d="m0 0h158l15 60 8 34 3 5 59 15 33 10 6 1 33-33 3-4h2l2-4 32-32 11 6 25 15 29 17 21 13 15 9 22 13 15 9 1 2-13 47-13 46 2 5 10 9 13 12 28 28 7 8 10 11 10-1 14-4 39-11 30-8h6l10 17 14 25 10 17 17 29 10 18 12 21 4 9-17 17-8 7-10 9-7 7-8 7-8 8-8 7-6 5 1 6 12 39 9 33 4 17 1 3 30 7 25 5 41 10 1 1 1 7v41l-1 104-2 2-63 14-33 8-4 15-13 48-8 27-1 6 12 11 8 7 10 9 8 7 12 11 17 16 5 5-2 6-8 16-13 23-10 17-16 28-9 15-15 26-6 10-3 1-86-25-11-2-12 12-7 8-28 28-8 7-8 8-7 6 3 11 5 17 8 27 7 25 3 11v4l-16 10-23 13-15 9-26 15-51 30-5 2-70-70-8 1-50 14-34 8-11 2-4 19-15 64-4 14-1 2-3 1h-82l-62-1-9-1-4-11-16-63-5-21-4-2-15-3-39-10-33-10-10-1-9 9-7 8-18 18-7 8-18 18-8 7-6-1-10-6-11-6-18-10-17-10-25-14-20-12-14-8-16-10-1-4 6-24 7-24 7-26 5-18-4-5-8-7-10-9-10-10-7-6-7-8-10-10-9-11-3-4h-7l-31 9-32 10-30 8-4-4-15-25-17-29-10-17-35-63 1-4 13-12 5-4 16-16 8-7 4-4h2v-2l11-9 12-11-1-8-10-33-12-45-3-10-15-4-35-7-39-9-9-3v-152l15-4 39-9 40-8h3l3-14 8-31 7-23 7-25 1-6-9-10-8-7-33-31-3-2v-2l-4-2-14-14 1-5 12-23 14-24 13-24 14-24 12-21 10-16 10 2 52 15 32 9 6 1 2-4 15-15 7-8 14-14 7-8 11-11 8-7 5-5-2-9-15-52-9-33 1-4 16-10 54-32 13-8 53-31 5 1 69 69 6-1 21-6 23-6 16-4 30-7h2l1-8 12-48 10-38zm75 34-13 5-10 9-5 10-1 3v16l4 10 6 8 8 7 6 4 1 53 1 34h100l-1 31-13-4-38-5-12-1h-60l-31 3-30 5-26 6-25 7-26 9-32 14-17 9-12 6-15 9-24 16-16 12-14 11-10 9-8 7-10 9-14 14-7 8-12 14-13 16-13 19-13 20-13 22-8 15-10 22-11 28-7 21-4 13v3h-35v-114l1-27 8-5 5-4 7-11 2-5v-17l-5-12-7-8-9-6-6-2h-17l-10 4-8 6-6 10-3 9v13l4 11 6 8 8 7 7 4h2v159l1 1h50l-3 17v10l-14-1h-48l-1 9v11h124l-1 10-1 22v28l3 34 5 30 5 20 4 15 11 31 11 25 14 26 7 11 8 12 12 17 9 11 9 10 7 8 24 24 11 9 9 8 16 12 24 16 15 9 22 12-6 8-7 10-10 14-16 21-13 19-10 13-12 16-11 15-4 6-14 19-4 5-6-1-7-2h-15l-10 4-8 7-6 10-2 8v10l3 10 6 10 8 6 7 3 5 1h10l10-3 8-5 8-9 3-7v-18l-2-8 13-17 8-11 10-13 10-14 13-17 14-18 6-8 6 1 27 11 33 11 24 6 36 7 35 4 17 1h34l37-3 28-4 28-6 25-7 19-6 21-8 25-11 22-11 22-13 20-13 11-8 16-12 28-24 19-19v-2l4-2 7-8v-2h2l9-11 11-13 10-14 7-10 10-15 9-16 12-22 10-22 10-26 9-28 4-14 8-40 4-33 1-18v-28l56 1 10 9 8 7 12 8 4 2 5 13 6 8 10 6 8 2h11l11-3 8-5 8-9 3-6 1-5v-12l-3-10-5-8-9-8-7-3-5-1h-13l-11 4-10 8-7 6-12-9-14-11-9-3-120-1-1-4-2-20-7-36-8-30-10-28-6-13-11-23-12-21-16-24-13-17-12-14-9-10-25-25-11-9-18-14-18-12-13-8-24-13-27-13-26-10-18-6-1-1-1-32 36 12 29 12 25 12 20 11 22 14 14 10 16 12 13 11 8 7 8 8 8 7 22 24 7 9 4 6h2l2 4 4 6 12 17 12 20 9 16 8 15 12 28 8 22 6 22 4 17 3 13h33l-1-9-7-29-9-29-9-25-11-26-14-27-11-18-8-12-12-17-9-12-13-16-9-10-7-8-21-21-8-7-13-11-16-12-20-14-11-7-18-11-23-12-16-8-23-10-57-19v-50l-1-2h-99l1-69 11-8 8-10 4-9 1-4v-12l-4-11-9-10-8-5-6-2z"
     fill="#2B2F34"
     id="path6" />
  <path
     transform="translate(724,730)"
     d="m0 0 419 1 8 7 13 13 8 7 16 15 12 11 7 7 8 7 15 14 13 12 12 11 4 4v131l-3 5-8 8-13 10-15 12-14 11-16 13-16 12-13 11-14 11-1 4 12 11 11 9 11 10 11 9 10 9 11 9 28 24 11 9 10 9 11 9 14 12 6 5-2 4-14 10-15 12-14 10-19 14-18 13-3 2-4-1-10-8-12-11-8-7-28-24-7-7-11-9-14-12-3-2-1 102-5 5-13 11-9 8-1 2v97l-13 3h-7v-107l9-9 11-9 9-9 1-5-1-106-11-10-14-11-5-4-5 2-16 12-21 16-14 10-2 2-4-1-13-10-17-14-9-7-15-12-17-13-12-10-3-1v160l1 4h2l5 5 13 12 8 7 2 5 1 103 12 2 10 1v1h-12l-11-2-2-3-1-43-1-17-2-5-2 5h-2l-2 6-5 2h-2v51l-5 1 3-2v-95l-7-7-8-7-13-12-3-5 1-321 4 1 10 9 11 9 32 26 14 11 13 11 18 14 5 4 4-2 10-8 14-11 18-14 15-12 9-7 17-13 14-11 16-13 14-11 10-8 9-7 1-2v-36l-2-4-4-2-12-11-11-9-11-10-9-6-267-1-12-12-6-5-7-8-19-19-8-7-24-24-8-7-14-14-8-7-5-5z"
     fill="#1A384F"
     id="path10" />
  <path
     transform="translate(1398,986)"
     d="m0 0 121 1 9 3 16 13 10 7 7-6 10-8 11-4h13l10 3 8 6 6 7 4 9 1 5v12l-3 9-6 8-7 6-10 4-5 1h-11l-10-3-9-6-6-9-4-11-13-8-10-8-8-8-3-2-56-1v28l-2 28-4 29-7 34-9 30-9 26-13 30-12 23-8 14-7 11-8 12-14 19-11 14-9 10-1 2h-2l-2 4-7 8h-2l-2 4-20 20-11 9-11 10-12 9-11 8-16 11-21 13-22 12-27 13-31 12-25 8-36 9-30 5-30 3-16 1h-34l-28-2-30-4-39-8-31-9-25-9-22-9-4 1-13 17-14 18-16 22-10 13-13 18-7 9 2 8v18l-4 8-9 10-8 4-8 2h-10l-9-3-6-3-5-4-6-10-3-10v-10l3-10 7-10 8-6 8-3h15l9 3 5-1 15-20 7-10 8-11 9-12 14-19 10-14 14-19 12-16 7-10 10-13 2-1 20 9 24 9 32 9 16 4 5 1 1-51 7-3 2-5h2l1-5 2-1 2 6 1 17 1 43 1 2 13 2-12-2-1-1-1-103-3-6-12-11-11-9-1-3h-2l-2-4 1-160 4 1 13 11 12 9 14 11 16 13 25 20 3 2 4-1 13-10 19-14 13-10 10-7 5 2 9 8 10 8 9 8 1 108-3 5-9 9-11 9-7 7-1 107 18-3 13-3 27-7 30-11 24-11 22-11 12-7 20-13 16-11 16-13 11-9 25-25 7-8 14-17 10-14 13-20 14-24 13-27 11-29 7-23 5-20 6-36 3-30z"
     fill="#2C3035"
     id="path14" />
  <path
     transform="translate(995,376)"
     d="m0 0h14l10 4 10 9 5 8 2 7v12l-4 11-4 6-7 8-9 6-1 69h99l1 4v48l57 19 23 10 16 8 27 14 14 9 11 7 20 14 18 14 14 12 13 12 19 19 7 8 13 16 10 13 12 17 10 15 9 15 13 24 11 24 10 27 10 31 7 28 2 10v4h-33l-3-13-5-22-7-23-11-28-8-18-10-19-13-22-12-18-8-11-3-4v-2h-2l-6-8-8-10-11-12-14-15-8-7-8-8-14-11-11-9-19-13-15-10-19-11-23-12-20-9-26-10-30-10 1 33-17-4-23-5-27-4-23-2h-47l-29 3-24 4-30 7-29 9-23 9-15 7-23 12-15 9-21 14-17 13-16 13-9 8v3l-4 1-16 16-7 8-11 13-10 13-14 21-12 20-14 27-10 23-9 27-6 21-5 22-4 25-1 1h-124v-11l1-9h52l10 1v-10l3-17h-50l-1-1v-159l-6-2-9-7-7-8-4-9-1-4v-13l4-11 6-9 9-6 8-3h17l10 4 10 9 6 12 1 3v17l-6 12-5 6-9 6-2 1-1 27v114h35l2-9 7-23 11-28 9-21 10-19 12-21 16-25 13-18 14-17 12-14 14-15 12-12 8-7 14-12 14-11 19-14 17-11 13-8 14-8 16-8 24-11 26-10 25-8 28-7 32-6 25-3 14-1h60l29 3 26 4 8 3 1-31h-100l-1-34-1-53-12-9-7-8-4-8-1-4v-16l4-10 9-10 12-6z"
     fill="#464F57"
     id="path16"
     style="fill:#2c3035;fill-opacity:1" />
  <path
     transform="translate(731,827)"
     d="m0 0 5 2 16 13 28 22 16 13 14 11 15 12 16 12 1 3-1 364-4-2-9-7-16-12v-2l-4-2-13-10-18-14-14-11-18-14-11-9-2-2-1-5z"
     fill="#1B384F"
     id="path18" />
  <path
     transform="translate(912,1108)"
     d="m0 0 4 1 13 11 12 9 14 11 16 13 25 20 3 2 4-1 13-10 19-14 13-10 10-7 5 2 9 8 10 8 9 8 1 108-3 5-9 9-11 9-7 7-1 107-7 2-34 3h-43l-30-3-4-2-1-103-3-6-12-11-11-9-1-3h-2l-2-4z"
     fill="#ECEFF3"
     id="path20" />
  <path
     transform="translate(1431,1007)"
     d="m0 0h32v27l-2 28-4 29-7 34-9 30-9 26-13 30-12 23-8 14-7 11-8 12-14 19-11 14-9 10-1 2h-2l-2 4-7 8h-2l-2 4-20 20-11 9-11 10-12 9-11 8-16 11-21 13-22 12-27 13-31 12-25 8-36 9-30 5-30 3-16 1h-34l-28-2-30-4-39-8-31-9-25-9-22-9-1-2 9-13 9-12 3-2 10 5 16 6 14 5 24 7 26 6 22 4 29 3 17 1h24l32-2 24-3 23-4 32-8 36-12 26-11 24-12 22-13 21-14 16-12 11-9 13-11 17-16 14-15 9-10 11-14 13-17 16-24 12-21 11-21 12-28 11-33 6-25 5-27 4-35z"
     fill="#ECEEF2"
     id="path24" />
  <path
     transform="translate(1110,603)"
     d="m0 0 12 3 24 8 29 12 25 12 20 11 22 14 14 10 16 12 13 11 8 7 8 8 8 7 12 13 11 12 7 9 3 4v2h2l7 10 12 17 12 20 9 16 8 15 12 28 8 22 6 22 4 17 2 13h66l1-5-1-170-9-5-7-6-5-8-3-10v-14l5-12 9-10 10-5 3-1h17l11 4 9 8 5 8 3 10v12l-3 9-8 11-10 7-5 2-1 17-1 177-12 1h-103l-3-13-6-27-7-25-9-25-6-13-11-23-12-21-16-24-13-17-12-14-9-10-24-24-11-9-18-14-18-12-13-8-24-13-27-13-26-10-18-6-2-2z"
     fill="#2C3035"
     id="path26" />
  <path
     transform="translate(968,556)"
     d="m0 0h60l29 3 26 4 8 3v30l-5 1-16-3-27-4-32-2h-25l-32 2-29 4-33 7-33 10-21 8-27 12-29 15-26 16-22 16-14 11-10 9-8 7-24 24-9 11-11 13-12 16-13 19-11 18-12 22-11 23-10 25-9 27h-32l-1-3 9-29 11-28 9-21 10-19 12-21 16-25 13-18 14-17 12-14 14-15 12-12 8-7 14-12 14-11 19-14 17-11 13-8 14-8 16-8 24-11 26-10 25-8 28-7 32-6 25-3z"
     fill="#ECEFF3"
     id="path28" />
  <path
     transform="translate(1110,569)"
     d="m0 0 9 2 35 11 19 7 20 9 16 8 25 13 14 9 11 7 20 14 18 14 14 12 13 12 19 19 7 8 13 16 10 13 12 17 10 15 9 15 13 24 11 24 10 27 10 31 7 28 2 10v4h-33l-3-13-5-22-7-23-11-28-8-18-10-19-13-22-12-18-8-11-3-4v-2h-2l-6-8-8-10-11-12-14-15-8-7-8-8-14-11-11-9-19-13-15-10-19-11-23-12-20-9-26-10-30-10-1-2v-15z"
     fill="#ECEFF2"
     id="path30" />
  <path
     transform="translate(537,1017)"
     d="m0 0 29 1 1 4 4 47 5 30 5 22 7 24 8 23 11 25 9 19 13 22 16 24 9 12 13 16 7 8 12 13 12 12 8 7 10 9 11 9 13 10 15 11 17 10 4 2-1 6-14 20-26 36-11 14-7 8-5-1-9-9 1-5 10-12 12-16 11-16 3-5v-3l-5-3-17-12-16-13-14-11-17-16-20-20-9-11-12-14-13-18-7-10-14-22-8-14-11-23-11-26-10-28-8-28-5-22-5-31-2-19-1-17v-18z"
     fill="#ECEEF2"
     id="path32" />
  <path
     transform="translate(491,692)"
     d="m0 0h17l10 4 10 9 6 12 1 3v17l-6 12-5 6-9 6-2 1-1 27v114h31l5-1 36 1h31l-1 6-6 20-4 20-3 20-1 1h-124v-11l1-9h52l10 1v-10l3-17h-50l-1-1v-159l-6-2-9-7-7-8-4-9-1-4v-13l4-11 6-9 9-6z"
     fill="#1BA2D4"
     id="path36" />
  <path
     transform="translate(1493,692)"
     d="m0 0h17l11 4 9 8 5 8 3 10v12l-3 9-8 11-10 7-5 2-1 17-1 177-12 1h-103l-3-13-1-6 33-1h66l1-5-1-170-9-5-7-6-5-8-3-10v-14l5-12 9-10 10-5z"
     fill="#DE8E5F"
     id="path44" />
  <path
     transform="translate(995,376)"
     d="m0 0h14l10 4 10 9 5 8 2 7v12l-4 11-4 6-7 8-9 6-1 69h99l1 4v49l-1 17v15l1 35-17-4-4-1v-35l2-61h-100l-1-34-1-53-12-9-7-8-4-8-1-4v-16l4-10 9-10 12-6z"
     fill="#1BA2D4"
     id="path46" />
  <path
     transform="translate(825,1370)"
     d="m0 0 21 9-6 7-8 10-8 11-13 17-6 9-5 5-11 14-14 18-16 22-10 13-13 18-7 9 2 8v18l-4 8-9 10-8 4-8 2h-10l-9-3-6-3-5-4-6-10-3-10v-10l3-10 7-10 8-6 8-3h15l9 3 5-1 15-20 7-10 8-11 9-12 14-19 10-14 14-19 12-16 7-10 10-13z"
     fill="#DF8E5F"
     id="path48" />
  <path
     transform="translate(395,992)"
     d="m0 0 11 1 10 4 6 5 9 12h4l11-8 12-7 3-1h137l1-3-1 22-1 1h-134l-10 6-11 8-8 6-9 11-8 7-8 4-4 1h-17l-12-5-5-4-6-9-3-8v-14l4-10 6-8 7-6 10-4z"
     fill="#DF8E5F"
     id="path50" />
  <path
     transform="translate(1398,986)"
     d="m0 0 121 1 9 3 16 13 10 7 7-6 10-8 11-4h13l10 3 8 6 6 7 4 9 1 5v12l-3 9-6 8-7 6-10 4-5 1h-11l-10-3-9-6-6-9-4-11-13-8-10-8-8-8-3-2h-88l-32-1z"
     fill="#DF8E5F"
     id="path52" />
  <path
     transform="translate(996,1224)"
     d="m0 0h14l10 4 10 9 6 10 1 4v14l-3 9-8 11-9 6-5 2v68l-1 48h-19v-114l-3-3-9-6-5-5-5-7-3-11v-8l3-12 7-10 7-5z"
     fill="#1BA2D4"
     id="path54" />
  <path
     transform="translate(1091,1161)"
     d="m0 0 5 2 11 9 2 2v104l-5 5-13 11-9 8-1 2v97l-13 3h-7v-107l9-9 11-9 9-9 1-5z"
     fill="#1BA2D4"
     id="path60" />
  <path
     d="m 997.62393,391.64689 h 5.99997 l 9,5 5,6 2,6 v 9.99998 l -4,6 -8,6 -2,1 h -11.99997 l -6,-3 -6,-7 -2,-5 v -7.99998 l 3,-7 5,-6 z"
     fill="#2d3136"
     id="path1233" />
  <path
     d="m 497.46275,707.26307 h 6 l 9,5 5,6 2,6 v 10 l -4,6 -8,6 -2,1 h -12 l -6,-3 -6,-7 -2,-5 v -8 l 3,-7 5,-6 z"
     fill="#2d3136"
     id="path1233-3" />
  <path
     d="m 394.18246,1006.2547 h 6 l 9,5 5,6 2,6 v 10 l -4,6 -8,6 -2,1 h -12 l -6,-3 -6,-7 -2,-5 v -8 l 3,-7 5,-6 z"
     fill="#2d3136"
     id="path1233-3-7" />
  <path
     d="m 1500.4361,707.09904 h 6 l 9,5 5,6 2,6 v 10 l -4,6 -8,6 -2,1 h -12 l -6,-3 -6,-7 -2,-5 v -8 l 3,-7 5,-6 z"
     fill="#2d3136"
     id="path1233-3-5" />
  <path
     d="m 995.03187,1239.2263 h 13.00003 l 6,3 6,7 2,6 v 7 l -3,7 -7,7 -6,2 h -11.00003 l -6,-3 -6,-7 -2,-7 1,-9 3,-6 6,-5 z"
     fill="#eceff3"
     id="path1229"
     inkscape:transform-center-x="-1.0431247" />
  <path
     d="m 1587.17,1007.509 h 6 l 9,5 5,6 2,6 v 10 l -4,6 -8,6 -2,1 h -12 l -6,-3 -6,-7 -2,-5 v -8 l 3,-7 5,-6 z"
     fill="#2d3136"
     id="path1233-3-3" />
  <path
     d="m 695.00418,1527.0932 h 6 l 9,5 5,6 2,6 v 10 l -4,6 -8,6 -2,1 h -12 l -6,-3 -6,-7 -2,-5 v -8 l 3,-7 5,-6 z"
     fill="#2d3136"
     id="path1233-3-56" />
</svg>
