<svg xmlns="http://www.w3.org/2000/svg" width="16" height="16" viewBox="0 0 16 16" fill="none">
  <path d="M7.1 1.8h1.8l.3 1.4c.5.1 1 .3 1.4.6l1.3-.7 1.3 1.3-.7 1.3c.3.4.5.9.6 1.4l1.4.3v1.8l-1.4.3c-.1.5-.3 1-.6 1.4l.7 1.3-1.3 1.3-1.3-.7c-.4.3-.9.5-1.4.6l-.3 1.4H7.1l-.3-1.4c-.5-.1-1-.3-1.4-.6l-1.3.7-1.3-1.3.7-1.3c-.3-.4-.5-.9-.6-1.4l-1.4-.3V7.1l1.4-.3c.1-.5.3-1 .6-1.4l-.7-1.3L4.1 2.8l1.3.7c.4-.3.9-.5 1.4-.6l.3-1.4z" stroke="#1f1f1f" stroke-width="1" fill="none"/>
  <circle cx="8" cy="8" r="2.3" fill="#1f1f1f"/>
</svg>
